<?xml version="1.0" encoding="UTF-8"?>
<svg version="1.1" xmlns="http://www.w3.org/2000/svg" width="200" height="200">
<path d="M0 0 C-0.56521751 11.10503429 -1.61839353 22.07110395 -3.02539062 33.09887695 C-3.23122632 34.74161653 -3.43663222 36.38441001 -3.64164734 38.0272522 C-4.19286834 42.43397239 -4.75022986 46.83989485 -5.30897331 51.24566674 C-5.89497257 55.87359061 -6.47573957 60.5021715 -7.05725098 65.13066101 C-8.03228598 72.8849888 -9.01122963 80.63881518 -9.99267578 88.39233398 C-11.12736224 97.35676422 -12.25631854 106.32190181 -13.38215685 115.28744727 C-14.46794038 123.93332915 -15.55719879 132.57876951 -16.64823914 141.22398949 C-17.11177911 144.89724046 -17.57419247 148.57063066 -18.03572083 152.2441349 C-18.57788703 156.55789643 -19.12311978 160.8712595 -19.67075539 165.18432999 C-19.87135908 166.76809263 -20.07091817 168.35198798 -20.26936913 169.9360218 C-20.53982545 172.09336358 -20.8140344 174.25019551 -21.0892334 176.40693665 C-21.31819431 178.21889007 -21.31819431 178.21889007 -21.5517807 180.06744862 C-22 183 -22 183 -23 186 C-31.43056191 186.12360955 -39.73817714 185.7656722 -48.140625 185.09790039 C-50.02093163 184.95400627 -50.02093163 184.95400627 -51.93922424 184.8072052 C-55.33771943 184.54611376 -58.73584501 184.2809427 -62.13385391 184.01364064 C-65.70448706 183.73357048 -69.27548764 183.45825807 -72.84643555 183.18223572 C-78.83130995 182.71888231 -84.81588612 182.25182186 -90.80029297 181.7824707 C-97.71424089 181.24025924 -104.62861808 180.70381503 -111.54325294 180.17044073 C-118.2145101 179.65572127 -124.88546031 179.13712494 -131.55627441 178.61669731 C-134.38861798 178.39578837 -137.22105973 178.17620559 -140.05358887 177.95768929 C-144.00088606 177.65295065 -147.94772477 177.34252675 -151.89453125 177.03149414 C-153.65404869 176.89662598 -153.65404869 176.89662598 -155.44911194 176.7590332 C-156.52269455 176.673517 -157.59627716 176.58800079 -158.70239258 176.49989319 C-160.10041862 176.39066072 -160.10041862 176.39066072 -161.52668762 176.27922153 C-163.76818501 176.02617047 -165.83152854 175.60907529 -168 175 C-171.87965257 147.72669202 -175.447997 120.41609074 -178.93139648 93.08959961 C-179.674537 87.26153563 -180.42366743 81.43425708 -181.17409229 75.60712719 C-181.75784803 71.06677376 -182.33764774 66.52592162 -182.91632652 61.98491859 C-183.19119909 59.83300902 -183.46749281 57.68128046 -183.74527931 55.5297451 C-184.12968021 52.54923409 -184.50852067 49.56806607 -184.88598633 46.58666992 C-185.05654289 45.27859375 -185.05654289 45.27859375 -185.23054504 43.9440918 C-185.81806038 39.2521644 -186.11349691 34.72864011 -186 30 C-167.72727586 26.34513472 -149.34926387 23.35010187 -130.96159101 20.34426785 C-127.47153219 19.77347582 -123.98173407 19.20109819 -120.49192375 18.62878919 C-112.26611433 17.27989354 -104.03982345 15.9339636 -95.81323242 14.58984375 C-87.34442295 13.20608362 -78.87654736 11.81670932 -70.40908295 10.42474437 C-63.10217938 9.22379452 -55.79467813 8.02653109 -48.4866938 6.83217549 C-44.13698787 6.12124313 -39.78752991 5.40887276 -35.43866158 4.69283295 C-31.36389772 4.02206675 -27.28840806 3.35590108 -23.21231461 2.69326401 C-21.71970302 2.44982232 -20.22735552 2.20475495 -18.73530006 1.9579277 C-16.69638436 1.62089872 -14.65658909 1.28980053 -12.61647034 0.96014404 C-11.47675561 0.77360638 -10.33704088 0.58706871 -9.16278934 0.39487839 C-6.07094756 0.0088579 -3.11205446 -0.07220313 0 0 Z " fill="#FDFDFD" transform="translate(196,2)"/>
<path d="M0 0 C22.71159714 8.83550654 38.55792311 31.61631211 50.1875 52.12890625 C50.1875 52.78890625 50.1875 53.44890625 50.1875 54.12890625 C50.8475 54.12890625 51.5075 54.12890625 52.1875 54.12890625 C52.41566406 53.29488281 52.64382812 52.46085937 52.87890625 51.6015625 C54.44386241 47.44858928 56.5853898 44.18034853 59.125 40.56640625 C59.61154053 39.86821777 60.09808105 39.1700293 60.59936523 38.45068359 C65.40273558 31.65936538 70.5951759 25.28272519 76.1875 19.12890625 C77.02152344 18.21109375 77.85554688 17.29328125 78.71484375 16.34765625 C86.37344623 8.31398793 96.37873162 -0.06329012 107.8125 -1.24609375 C111.46319386 -0.8404611 113.29859532 -0.09967736 116.1875 2.12890625 C118.31121799 5.31448324 118.44315567 6.13068378 118.453125 9.78515625 C118.45715332 10.71634277 118.46118164 11.6475293 118.46533203 12.60693359 C118.45614746 13.60418457 118.44696289 14.60143555 118.4375 15.62890625 C118.42952393 17.16538818 118.42952393 17.16538818 118.42138672 18.73291016 C117.98494454 54.4162015 117.98494454 54.4162015 108.1875 65.12890625 C101.20669006 70.26148744 93.67407695 72.2509845 85.1875 73.12890625 C85.83976562 73.35964844 86.49203125 73.59039062 87.1640625 73.828125 C93.89909496 76.34134508 98.53951411 78.77479079 103.0625 84.50390625 C105.15521187 89.38690061 104.62511536 93.57053938 102.8125 98.44140625 C98.66214173 107.02076876 90.24707892 114.96044192 81.1875 118.12890625 C75.81020154 119.13544947 71.37254596 118.48584941 66.8046875 115.43359375 C58.90916323 109.06377466 53.76455322 99.11072545 52.1875 89.12890625 C51.5275 89.12890625 50.8675 89.12890625 50.1875 89.12890625 C50.04054688 89.72316406 49.89359375 90.31742187 49.7421875 90.9296875 C47.04545938 100.8951828 43.07402437 110.2958085 34.1875 116.12890625 C30.08001784 118.44594747 25.80964693 119.02586134 21.1875 118.12890625 C12.25822993 114.34116749 3.8910682 107.29050987 -0.375 98.50390625 C-1.85753807 94.52518779 -2.58642368 91.38548651 -1.8125 87.12890625 C1.81811669 79.31850396 8.59220377 76.37349881 16.1875 73.12890625 C15.48625 73.0309375 14.785 72.93296875 14.0625 72.83203125 C7.77972288 71.84181094 2.62041287 70.46076128 -2.8125 67.12890625 C-3.699375 66.59265625 -4.58625 66.05640625 -5.5 65.50390625 C-12.38963284 58.42806712 -13.83138113 49.62066088 -14.8125 40.12890625 C-14.92335937 39.24203125 -15.03421875 38.35515625 -15.1484375 37.44140625 C-15.9072867 30.38615967 -16.00924034 23.28140965 -16.125 16.19140625 C-16.15480957 15.18352051 -16.18461914 14.17563477 -16.21533203 13.13720703 C-16.27248434 5.88859173 -16.27248434 5.88859173 -13.91796875 2 C-9.53276509 -1.89705483 -5.3797868 -1.66623952 0 0 Z " fill="#010101" transform="translate(48.8125,41.87109375)"/>
</svg>
