<?xml version="1.0" encoding="UTF-8"?>
<svg version="1.1" xmlns="http://www.w3.org/2000/svg" width="200" height="200">
<path d="M0 0 C5.48746559 3.57120777 10.245943 7.89141764 14.9375 12.4375 C15.4752002 12.95111084 16.01290039 13.46472168 16.56689453 13.99389648 C20.94173133 18.24952957 24.75532986 22.7627113 28.4375 27.625 C28.99993408 28.36097412 29.56236816 29.09694824 30.1418457 29.85522461 C34.13184987 35.15813207 37.55651049 40.54170966 40.66796875 46.41015625 C41.29638672 47.41369141 41.29638672 47.41369141 41.9375 48.4375 C42.5975 48.4375 43.2575 48.4375 43.9375 48.4375 C45.00735242 46.75065882 45.9908914 45.00896262 46.9375 43.25 C57.54597631 24.5974931 75.11620913 2.02704444 96.265625 -4.25390625 C99.66494302 -4.87019482 101.9864465 -4.54587666 105.25 -3.4375 C108.31952656 -1.29596984 109.35187001 0.06061077 110.9375 3.4375 C111.24058608 6.22173196 111.36349754 8.72093038 111.3125 11.5 C111.29944824 12.70523315 111.29944824 12.70523315 111.28613281 13.93481445 C111.10976289 21.69147671 110.44262046 29.4059348 109.6875 37.125 C109.57841309 38.31810791 109.46932617 39.51121582 109.35693359 40.74047852 C108.35196548 50.07034956 106.39304256 57.16806649 98.9375 63.4375 C93.56530783 67.49020637 88.57357281 69.40829426 81.9375 70.4375 C82.69675781 70.95699219 83.45601563 71.47648437 84.23828125 72.01171875 C85.23214844 72.70910156 86.22601563 73.40648438 87.25 74.125 C88.23613281 74.80949219 89.22226563 75.49398437 90.23828125 76.19921875 C93.73403514 79.09801322 95.56535559 81.53350536 96.44140625 86.015625 C96.60595574 93.51908178 94.78700758 97.7725885 89.9375 103.4375 C89.39609375 104.076875 88.8546875 104.71625 88.296875 105.375 C83.28697888 110.80628925 77.19115054 115.09592717 69.8125 116.4375 C63.65593892 116.4375 59.01522201 114.15418044 54.4140625 110.08203125 C49.55716773 104.67263258 43.9375 95.87371952 43.9375 88.4375 C43.2775 88.4375 42.6175 88.4375 41.9375 88.4375 C41.82792969 89.14132813 41.71835938 89.84515625 41.60546875 90.5703125 C39.4532477 99.80850111 33.98599903 108.45184287 26.5625 114.3125 C20.99302397 116.6994183 16.73591293 117.01301402 11.0625 115.0625 C2.34199257 111.15839591 -6.31547384 103.36037941 -10.0625 94.4375 C-11.08454434 89.15569422 -11.05783177 84.27035942 -8.125 79.625 C-4.8212828 75.67199733 -0.45060512 73.04741873 3.9375 70.4375 C2.019375 70.128125 2.019375 70.128125 0.0625 69.8125 C-8.61679285 67.83061423 -14.97899196 63.56276206 -19.90625 56.171875 C-25.45374808 43.0527917 -25.19146373 26.04203633 -25.4375 12 C-25.46344238 11.22599854 -25.48938477 10.45199707 -25.51611328 9.65454102 C-25.53319489 4.49304913 -24.60147095 1.44148932 -21.0625 -2.5625 C-14.29555781 -6.48536504 -6.37580055 -3.61027192 0 0 Z " fill="#FFFFFF" transform="translate(57.0625,44.5625)"/>
</svg>
