<?xml version="1.0" encoding="UTF-8"?>
<svg version="1.1" xmlns="http://www.w3.org/2000/svg" width="200" height="200">
<path d="M0 0 C1.35044307 0.06441038 2.70043754 0.13851471 4.05001831 0.21899414 C4.83009813 0.26450912 5.61017796 0.31002411 6.41389656 0.35691833 C20.44459405 1.26486954 34.43235499 2.85668688 48.41570807 4.30347824 C52.72697678 4.74879116 57.03869166 5.18974598 61.3503418 5.63134766 C68.57052308 6.37151494 75.79035603 7.11500584 83.00997925 7.8605957 C91.35203221 8.7220656 99.69459638 9.57844041 108.03745162 10.43210316 C116.09271518 11.25643414 124.14763625 12.08406498 132.20239639 12.91329956 C135.62085736 13.26518599 139.03942954 13.61596227 142.45809555 13.96585083 C146.47222074 14.37685156 150.48603643 14.79075355 154.49962997 15.20691299 C155.97173797 15.35908833 157.44394878 15.51027268 158.9162674 15.66039658 C160.9241715 15.86529981 162.9316718 16.07414872 164.93914795 16.28320312 C166.06247969 16.39897202 167.18581142 16.51474091 168.34318352 16.63401794 C170.7177819 16.93938565 172.92227676 17.35341382 175.22140503 18.00415039 C176.02944463 25.86544364 176.46297891 33.69276093 176.70211792 41.59033203 C176.74127823 42.79863174 176.78043854 44.00693146 176.82078552 45.25184631 C176.92650771 48.53788793 177.02931426 51.82400334 177.13051534 55.11018682 C177.21618554 57.87947256 177.30391602 60.64869158 177.39162534 63.41791338 C177.59931481 69.97627263 177.80366427 76.53473 178.00582886 83.09326172 C178.21215604 89.78516558 178.42375837 96.47688713 178.6381169 103.16853815 C178.82373649 108.96860095 179.0060784 114.76876086 179.18594354 120.56900495 C179.29261223 124.00816462 179.40033439 127.44728108 179.5111866 130.88630867 C180.0671637 148.26498824 180.34284582 165.61642777 180.22140503 183.00415039 C175.88031444 183.80212349 171.63579027 184.22826214 167.22961426 184.46607971 C166.20980282 184.52248931 166.20980282 184.52248931 165.16938913 184.58003849 C162.90384961 184.70451728 160.63808278 184.82418927 158.37228394 184.94384766 C156.74219275 185.03238658 155.11211702 185.12121027 153.48205566 185.21029663 C149.06015868 185.45103729 144.63804142 185.68747492 140.21585894 185.92290616 C136.51385142 186.12038616 132.81195822 186.31996407 129.11006296 186.51953548 C120.3636481 186.99102405 111.61705148 187.45902628 102.87033081 187.92480469 C93.88051282 188.40358346 84.89100609 188.88790773 75.90163863 189.37506634 C68.16137085 189.79434902 60.42092717 190.21026606 52.6803354 190.62352413 C48.06765747 190.86981201 43.45505174 191.11728752 38.84260941 191.36795235 C34.49420957 191.60410876 30.14560188 191.8360082 25.79681015 192.06483078 C24.2134649 192.14881508 22.63019355 192.23420823 21.04701233 192.32122993 C10.76083487 192.88547795 0.52295954 193.10543817 -9.77859497 193.00415039 C-9.96565362 174.1067782 -9.41623409 155.24835277 -8.80188107 136.3644011 C-8.66258646 132.06337548 -8.52703482 127.76223143 -8.3908844 123.46110535 C-8.16227245 116.25751432 -7.93069597 109.05402332 -7.69729614 101.85058594 C-7.42852482 93.55428774 -7.16461658 85.25784537 -6.90323979 76.96131116 C-6.6498052 68.92067077 -6.3928678 60.88014585 -6.13438225 52.83966637 C-6.02520837 49.44170294 -5.91724739 46.0437043 -5.81030464 42.64566994 C-5.68426162 38.64559244 -5.55512935 34.64562579 -5.42370987 30.64572144 C-5.3763006 29.18818721 -5.32991083 27.73061936 -5.28467751 26.27301598 C-4.46723018 0.00667271 -4.46723018 0.00667271 0 0 Z " fill="#FDFDFD" transform="translate(13.778594970703125,2.995849609375)"/>
<path d="M0 0 C1.27831696 -0.0033284 2.55663391 -0.0066568 3.87368774 -0.01008606 C6.5717249 -0.01604938 9.26973016 -0.01792883 11.96777344 -0.01733398 C15.40264466 -0.01723246 18.83730875 -0.03088714 22.27213097 -0.04810619 C25.5772566 -0.06198397 28.88234568 -0.06131702 32.1875 -0.0625 C33.40964203 -0.06968552 34.63178406 -0.07687103 35.89096069 -0.08427429 C46.87402079 -0.05509273 55.81826589 1.32009449 64.7265625 8.16796875 C74.86491085 18.47670951 74.87829969 31.3151169 74.96484375 44.9609375 C74.9729155 46.18396072 74.98098724 47.40698395 74.98930359 48.66706848 C75.00308975 51.24816493 75.01383616 53.82927919 75.02172852 56.41040039 C75.03324541 59.03154907 75.05369233 61.65267434 75.08325195 64.27368164 C75.12618694 68.0862603 75.14213294 71.89814628 75.15234375 75.7109375 C75.16985184 76.86554977 75.18735992 78.02016205 75.20539856 79.20976257 C75.17990594 88.9201672 73.6186347 99.84191898 67.34375 107.67578125 C59.2043289 115.18606835 49.36391185 118.25916403 38.49682617 118.32910156 C37.28504196 118.33870911 36.07325775 118.34831665 34.82475281 118.35821533 C33.52777969 118.36246521 32.23080658 118.36671509 30.89453125 118.37109375 C30.22724817 118.37392113 29.5599651 118.3767485 28.87246132 118.37966156 C25.34132117 118.3946002 21.81022132 118.40386335 18.27905273 118.40820312 C14.6546237 118.413681 11.03057159 118.43770952 7.40626049 118.46617508 C4.59820007 118.48490826 1.79022857 118.49001269 -1.01788902 118.491539 C-2.99689986 118.49599013 -4.97586288 118.51458089 -6.95478821 118.5335083 C-17.88173386 118.50665623 -26.14842553 116.74183112 -34.2734375 109.16796875 C-41.15692005 101.55144001 -43.38053583 92.30273428 -43.41870117 82.21362305 C-43.42827095 80.48604012 -43.42827095 80.48604012 -43.43803406 78.72355652 C-43.43914688 77.49220474 -43.4402597 76.26085297 -43.44140625 74.9921875 C-43.44473465 73.7124556 -43.44806305 72.43272369 -43.45149231 71.11421204 C-43.45746214 68.41019853 -43.45933446 65.70621689 -43.45874023 63.00219727 C-43.45863881 59.55945029 -43.47228017 56.11691046 -43.48951244 52.67421246 C-43.50339315 49.36353487 -43.50272347 46.05289374 -43.50390625 42.7421875 C-43.51109177 41.51690842 -43.51827728 40.29162933 -43.52568054 39.02922058 C-43.49657231 28.04322301 -42.13527717 19.07472753 -35.2734375 10.16796875 C-25.0298045 0.27756447 -13.42867534 0.01218713 0 0 Z " fill="#FAFAFA" transform="translate(84.2734375,40.83203125)"/>
<path d="M0 0 C1.27831696 -0.0033284 2.55663391 -0.0066568 3.87368774 -0.01008606 C6.5717249 -0.01604938 9.26973016 -0.01792883 11.96777344 -0.01733398 C15.40264466 -0.01723246 18.83730875 -0.03088714 22.27213097 -0.04810619 C25.5772566 -0.06198397 28.88234568 -0.06131702 32.1875 -0.0625 C33.40964203 -0.06968552 34.63178406 -0.07687103 35.89096069 -0.08427429 C46.87402079 -0.05509273 55.81826589 1.32009449 64.7265625 8.16796875 C74.86491085 18.47670951 74.87829969 31.3151169 74.96484375 44.9609375 C74.9729155 46.18396072 74.98098724 47.40698395 74.98930359 48.66706848 C75.00308975 51.24816493 75.01383616 53.82927919 75.02172852 56.41040039 C75.03324541 59.03154907 75.05369233 61.65267434 75.08325195 64.27368164 C75.12618694 68.0862603 75.14213294 71.89814628 75.15234375 75.7109375 C75.16985184 76.86554977 75.18735992 78.02016205 75.20539856 79.20976257 C75.17990594 88.9201672 73.6186347 99.84191898 67.34375 107.67578125 C59.2043289 115.18606835 49.36391185 118.25916403 38.49682617 118.32910156 C37.28504196 118.33870911 36.07325775 118.34831665 34.82475281 118.35821533 C33.52777969 118.36246521 32.23080658 118.36671509 30.89453125 118.37109375 C30.22724817 118.37392113 29.5599651 118.3767485 28.87246132 118.37966156 C25.34132117 118.3946002 21.81022132 118.40386335 18.27905273 118.40820312 C14.6546237 118.413681 11.03057159 118.43770952 7.40626049 118.46617508 C4.59820007 118.48490826 1.79022857 118.49001269 -1.01788902 118.491539 C-2.99689986 118.49599013 -4.97586288 118.51458089 -6.95478821 118.5335083 C-17.88173386 118.50665623 -26.14842553 116.74183112 -34.2734375 109.16796875 C-41.15692005 101.55144001 -43.38053583 92.30273428 -43.41870117 82.21362305 C-43.42827095 80.48604012 -43.42827095 80.48604012 -43.43803406 78.72355652 C-43.43914688 77.49220474 -43.4402597 76.26085297 -43.44140625 74.9921875 C-43.44473465 73.7124556 -43.44806305 72.43272369 -43.45149231 71.11421204 C-43.45746214 68.41019853 -43.45933446 65.70621689 -43.45874023 63.00219727 C-43.45863881 59.55945029 -43.47228017 56.11691046 -43.48951244 52.67421246 C-43.50339315 49.36353487 -43.50272347 46.05289374 -43.50390625 42.7421875 C-43.51109177 41.51690842 -43.51827728 40.29162933 -43.52568054 39.02922058 C-43.49657231 28.04322301 -42.13527717 19.07472753 -35.2734375 10.16796875 C-25.0298045 0.27756447 -13.42867534 0.01218713 0 0 Z M-27.1484375 16.29296875 C-27.68210937 16.81117187 -28.21578125 17.329375 -28.765625 17.86328125 C-33.6591313 25.34299295 -33.71707858 33.45064349 -33.671875 42.12890625 C-33.67474518 43.35525787 -33.67761536 44.5816095 -33.68057251 45.84512329 C-33.68260599 48.42865462 -33.67712649 51.0122016 -33.66455078 53.59570312 C-33.64851578 57.5237926 -33.6644109 61.45084887 -33.68359375 65.37890625 C-33.68161065 67.89974183 -33.67776561 70.42057677 -33.671875 72.94140625 C-33.67794769 74.10320404 -33.68402039 75.26500183 -33.6902771 76.46200562 C-33.60235868 86.79396523 -32.41779621 95.60573706 -25.3828125 103.51171875 C-18.26645164 109.09937987 -10.87061301 108.63538005 -2.16015625 108.63671875 C-0.78163855 108.64383312 0.59687624 108.65153395 1.97538757 108.65979004 C4.85761757 108.67319256 7.73957386 108.67482349 10.62182617 108.66894531 C14.29021054 108.66306096 17.95726602 108.69360541 21.62539387 108.73406219 C24.47129721 108.76009286 27.31688735 108.76280275 30.1628933 108.75917053 C32.16460334 108.76165636 34.1662474 108.78624491 36.1678009 108.81140137 C44.67710589 108.74743907 51.8141731 107.57790222 58.33369446 101.72521973 C62.75509211 96.75750534 65.0995456 91.67036321 65.11474609 85.04589844 C65.12893082 83.26309479 65.12893082 83.26309479 65.1434021 81.4442749 C65.13732941 80.17231262 65.13125671 78.90035034 65.125 77.58984375 C65.12702453 76.25473878 65.12993911 74.9196349 65.13369751 73.58453369 C65.13810923 70.79046061 65.13173155 67.99667611 65.11767578 65.20263672 C65.10065069 61.64773723 65.11038916 58.09352073 65.12839317 54.5386467 C65.1393196 51.78111788 65.13574341 49.02374645 65.1280098 46.26621246 C65.12507457 44.32661999 65.13408273 42.38702104 65.1434021 40.44744873 C65.06440557 30.41345944 64.30741069 21.9426773 56.93359375 14.640625 C49.33017619 9.56719417 41.77653124 9.72699779 32.91796875 9.76953125 C31.58332664 9.76750561 30.24868561 9.76459012 28.91404724 9.76083374 C26.12773009 9.75643181 23.3417031 9.76277086 20.55541992 9.77685547 C17.00720588 9.79392983 13.4596737 9.78410438 9.91148472 9.76613808 C7.15828948 9.75522774 4.40525228 9.75877976 1.65205193 9.76652145 C-0.28482131 9.76945963 -2.22170101 9.76044365 -4.15855408 9.75112915 C-12.29053049 9.8154932 -21.11681677 10.08129964 -27.1484375 16.29296875 Z " fill="#090909" transform="translate(84.2734375,40.83203125)"/>
<path d="M0 0 C5.77205811 4.91303119 8.14258046 10.61150093 8.85546875 17.99609375 C9.38234661 28.92359283 7.21377599 36.44716062 -0.19140625 44.6484375 C-7.91943613 51.7444352 -15.70674009 52.90496065 -26.0078125 52.59375 C-33.0385734 51.9495909 -38.66068487 49.57851247 -43.50390625 44.2734375 C-51.10981312 34.45176024 -52.50975118 27.33188678 -51.265625 14.890625 C-49.7588847 7.37214311 -45.29467241 1.21267306 -39.12890625 -3.1640625 C-26.09174466 -10.99503643 -11.81833247 -9.00704323 0 0 Z " fill="#080808" transform="translate(121.50390625,77.7265625)"/>
<path d="M0 0 C4.95979287 2.85749384 8.8723289 6.99198669 10.6875 12.4375 C11.39099715 19.57626617 11.04791425 25.55227831 6.6875 31.4375 C3.08593821 35.21239899 -0.83957873 38.13754058 -6.08203125 38.7734375 C-12.7937332 38.85959542 -16.95126936 38.59518907 -22.3125 34.4375 C-27.14473729 29.7215465 -29.58350052 24.89271399 -29.75 18.125 C-29.61707643 11.54085253 -27.33801652 7.47058031 -22.75 2.87109375 C-16.45498055 -2.65278582 -7.6472558 -3.45455185 0 0 Z " fill="#F9F9F9" transform="translate(109.3125,81.5625)"/>
<path d="M0 0 C2.375 1.0625 2.375 1.0625 4 3 C4.57491549 6.95254396 4.61372366 9.07941451 2.375 12.4375 C-0.69861159 14.45961289 -2.38925156 14.61459548 -6 14 C-8.83268842 11.63942631 -8.98743809 10.11933812 -9.375 6.4375 C-9 3 -9 3 -7.875 1.0625 C-5.09808875 -0.51108304 -3.13770673 -0.38420899 0 0 Z " fill="#111111" transform="translate(134,61)"/>
<path d="M0 0 C0.66 0.33 1.32 0.66 2 1 C-1.3 4.3 -4.6 7.6 -8 11 C-8 8 -8 8 -5.6875 5.5 C-4.800625 4.675 -3.91375 3.85 -3 3 C-2.401875 2.401875 -1.80375 1.80375 -1.1875 1.1875 C-0.795625 0.795625 -0.40375 0.40375 0 0 Z " fill="#2B2B2B" transform="translate(83,74)"/>
</svg>
