<?xml version="1.0" encoding="UTF-8"?>
<svg version="1.1" xmlns="http://www.w3.org/2000/svg" width="200" height="200">
<path d="M0 0 C1.62115235 -0.00808224 3.24229308 -0.01911757 4.86340332 -0.0333252 C34.90614986 -0.26859831 34.90614986 -0.26859831 46.01544189 9.56585693 C53.94914739 18.40014521 55.74269638 27.7620313 55.90997314 39.19866943 C55.93171097 40.2582486 55.95344879 41.31782776 55.97584534 42.40951538 C56.01964836 44.65018544 56.0588736 46.89094908 56.09381104 49.1317749 C56.14752889 52.50467783 56.21798886 55.8769128 56.29083252 59.24945068 C57.08530476 99.93033508 57.08530476 99.93033508 46.46075439 112.17523193 C31.38400802 124.7904687 10.49965207 122.36210461 -8.01629639 122.36053467 C-10.93164178 122.36274512 -13.84662168 122.38105666 -16.76190186 122.39984131 C-40.82103235 122.47510249 -40.82103235 122.47510249 -48.72674561 117.55023193 C-49.46280029 117.10421631 -50.19885498 116.65820068 -50.95721436 116.19866943 C-51.47928467 115.86093506 -52.00135498 115.52320068 -52.53924561 115.17523193 C-52.53924561 114.51523193 -52.53924561 113.85523193 -52.53924561 113.17523193 C-53.13479248 112.94191162 -53.73033936 112.70859131 -54.34393311 112.46820068 C-57.08694146 110.85265662 -58.06334575 109.2243487 -59.66424561 106.48773193 C-60.16182373 105.65886475 -60.65940186 104.82999756 -61.17205811 103.97601318 C-64.1384527 97.89914196 -64.91085652 92.06840382 -65.16424561 85.42523193 C-65.20146729 84.55197266 -65.23868896 83.67871338 -65.27703857 82.7789917 C-65.61425122 73.56003307 -65.64559894 64.33677678 -65.66424561 55.11273193 C-65.66692444 54.36342407 -65.66960327 53.61411621 -65.67236328 52.84210205 C-65.74219295 27.06719406 -65.74219295 27.06719406 -61.72674561 19.73773193 C-61.22530029 18.790271 -60.72385498 17.84281006 -60.20721436 16.86663818 C-57.28797891 12.1562091 -54.53106369 8.80979594 -49.72674561 5.98773193 C-48.91592529 5.49917725 -48.10510498 5.01062256 -47.26971436 4.50726318 C-41.316809 1.6031992 -35.46157339 0.80169684 -28.91424561 0.55023193 C-27.61100342 0.49548706 -27.61100342 0.49548706 -26.28143311 0.43963623 C-17.52454663 0.12552412 -8.76186108 0.04120031 0 0 Z M-41.53924561 16.17523193 C-42.52924561 16.50523193 -43.51924561 16.83523193 -44.53924561 17.17523193 C-49.20248784 20.63505681 -50.97540925 25.76372466 -52.53924561 31.17523193 C-53.07386606 35.54918289 -53.07783378 39.86662815 -53.03533936 44.26898193 C-53.03679459 45.49629028 -53.03824982 46.72359863 -53.03974915 47.98809814 C-53.03809722 50.56986884 -53.0266158 53.15165011 -53.00579834 55.7333374 C-52.97683121 59.66361739 -52.9852091 63.59254706 -52.99822998 67.52288818 C-52.99199182 70.04242593 -52.98360027 72.56195945 -52.97283936 75.08148193 C-52.97577499 76.24530396 -52.97871063 77.40912598 -52.98173523 78.60821533 C-52.8802536 87.47414074 -51.84968703 96.54241276 -46.15119934 103.7197876 C-39.32619632 109.8821307 -29.90885158 109.76568719 -21.26190186 109.70648193 C-19.39120277 109.71222229 -19.39120277 109.71222229 -17.48271179 109.71807861 C-14.19057595 109.72147693 -10.89921147 109.70553004 -7.60717773 109.68304443 C-5.60455047 109.67524286 -3.60262527 109.68301461 -1.60003662 109.69671631 C2.28383223 109.72158684 6.16668458 109.71839083 10.05059814 109.70648193 C11.23113266 109.71457886 12.41166718 109.72267578 13.62797546 109.73101807 C22.44960625 109.63241936 29.66643774 107.8274071 37.39825439 103.55023193 C43.78929395 96.19085306 44.0559441 87.24668965 43.99200439 77.93304443 C43.9958313 76.68828339 43.9996582 75.44352234 44.00360107 74.16104126 C44.00631054 71.54060045 43.99901752 68.92013215 43.98223877 66.29974365 C43.96085422 62.31881487 43.98205739 58.33969828 44.00762939 54.35882568 C44.00498524 51.800228 43.99985846 49.24163143 43.99200439 46.68304443 C44.00010132 45.5076712 44.00819824 44.33229797 44.01654053 43.12130737 C43.92683226 35.09564192 43.19717532 26.03572542 38.11981201 19.43087769 C30.64283316 12.73338396 22.69455878 12.72970994 13.18731689 12.77679443 C11.90899994 12.77392426 10.63068298 12.77105408 9.31362915 12.76809692 C6.61548914 12.76369128 3.91764846 12.77004501 1.21954346 12.78411865 C-2.21548614 12.80117552 -5.64981052 12.79138118 -9.08481407 12.77340126 C-12.38999135 12.75986289 -15.69498589 12.76938444 -19.00018311 12.77679443 C-20.22232513 12.77072174 -21.44446716 12.76464905 -22.7036438 12.75839233 C-29.57395414 12.81449918 -35.18838058 13.54382592 -41.53924561 16.17523193 Z " fill="#FFFFFF" transform="translate(104.53924560546875,38.82476806640625)"/>
<path d="M0 0 C7.45303299 5.8623377 11.23109011 14.69255973 12.46875 23.90625 C12.72572367 29.30269697 11.15710179 33.88849552 9.1875 38.8125 C8.5996875 40.3284375 8.5996875 40.3284375 8 41.875 C2.95814582 50.04628091 -3.66619385 54.7263988 -12.79296875 57.390625 C-22.36091027 59.38934392 -31.4746036 56.79529552 -39.625 51.625 C-46.77150467 46.02090641 -50.95993607 37.28567062 -52.12890625 28.41015625 C-52.58229888 19.15217131 -49.60414332 11.49558424 -43.6875 4.4375 C-31.40315022 -8.33416283 -14.76033658 -9.36338532 0 0 Z M-35.1875 14.3125 C-38.44351122 19.32174804 -39.69783056 23.81438545 -38.8125 29.8125 C-36.65929672 36.44338738 -32.90953458 40.41691986 -26.921875 43.91796875 C-22.97598594 45.591318 -19.00226897 45.44693278 -14.8125 44.8125 C-11.85989503 43.47762481 -9.38203067 41.77080282 -6.8125 39.8125 C-5.8225 39.1525 -4.8325 38.4925 -3.8125 37.8125 C-0.70719606 32.29195966 0.24118881 27.1050902 -0.8125 20.8125 C-3.55521803 14.23223411 -8.27169446 9.63612643 -14.8125 6.8125 C-23.51388803 5.4066635 -29.24899264 8.06143962 -35.1875 14.3125 Z " fill="#FFFFFF" transform="translate(119.8125,74.1875)"/>
<path d="M0 0 C2.5625 2.0625 2.5625 2.0625 4 5 C4 8.92016134 3.55226285 11.17160572 1.375 14.4375 C-1.9617771 16.63274809 -4.08548544 16.55921637 -8 16 C-10.4375 14.5 -10.4375 14.5 -12 12 C-12.79841448 7.98323437 -12.61897146 5.0316191 -10.5 1.5 C-6.9757983 -0.61452102 -4.00426261 -0.93350908 0 0 Z " fill="#FFFFFF" transform="translate(136,60)"/>
</svg>
