<?xml version="1.0" encoding="UTF-8"?>
<svg version="1.1" xmlns="http://www.w3.org/2000/svg" width="200" height="200">
<path d="M0 0 C4.9041273 0.98082546 8.36664902 2.63066883 12.625 5.0625 C13.39859863 5.49804199 14.17219727 5.93358398 14.96923828 6.38232422 C23.16124443 11.02780082 31.24214099 15.86360832 39.33129883 20.68505859 C47.02321334 25.26481245 54.7611811 29.7550569 62.5428772 34.18045044 C64.29949269 35.18009785 66.05466061 36.18223711 67.80932617 37.18530273 C74.57064175 41.05047161 74.57064175 41.05047161 81.35058594 44.8828125 C84.47127134 46.63674032 87.58015389 48.41007853 90.6875 50.1875 C91.62053955 50.70401123 92.5535791 51.22052246 93.51489258 51.75268555 C94.35947021 52.240354 95.20404785 52.72802246 96.07421875 53.23046875 C96.81244873 53.64707764 97.55067871 54.06368652 98.3112793 54.49291992 C100.53820845 56.48031817 100.68204497 58.09450684 101 61 C93.95350314 65.87944067 86.62953368 70.25554217 79.24768066 74.59967041 C75.68090328 76.69943439 72.11968076 78.80857278 68.55859375 80.91796875 C67.83600372 81.34589722 67.1134137 81.77382568 66.368927 82.21472168 C59.46829616 86.30621267 52.60388404 90.45581256 45.75 94.625 C44.62940186 95.30530273 43.50880371 95.98560547 42.35424805 96.68652344 C36.94154203 99.97665298 31.53838567 103.28071067 26.15264893 106.61474609 C23.56263663 108.21665429 20.96861564 109.8120018 18.37414551 111.40667725 C17.13536234 112.17065943 15.89858273 112.93790097 14.66394043 113.70855713 C12.95797431 114.77328145 11.24476579 115.82637505 9.53125 116.87890625 C8.55736328 117.4829126 7.58347656 118.08691895 6.58007812 118.70922852 C4 120 4 120 0 120 C0 80.4 0 40.8 0 0 Z " fill="#FFFFFF" transform="translate(57,41)"/>
</svg>
