<?xml version="1.0" encoding="UTF-8"?>
<svg version="1.1" xmlns="http://www.w3.org/2000/svg" width="200" height="200">
<path d="M0 0 C5.69523627 0.58305687 10.90930877 1.66433068 16.38549805 3.30639648 C17.18714103 3.54130987 17.98878401 3.77622326 18.8147192 4.01825523 C21.46549307 4.79664529 24.11356692 5.58383386 26.76171875 6.37109375 C28.64839016 6.92702891 30.53522456 7.48241124 32.42221069 8.03727722 C37.47003927 9.52323629 42.51559894 11.01676361 47.56074905 12.51178741 C52.77348998 14.05508266 57.98827856 15.59142629 63.20288086 17.12841797 C71.54423427 19.58791235 79.88441476 22.05134191 88.22363281 24.51806641 C97.91659722 27.38515478 107.6115992 30.24525682 117.30813408 33.10024452 C128.40573245 36.36781664 139.50281941 39.63712468 150.59765625 42.9140625 C151.62442474 43.21692673 152.65119324 43.51979095 153.70907593 43.83183289 C155.10037216 44.24306145 155.10037216 44.24306145 156.51977539 44.66259766 C157.31928116 44.89870758 158.11878693 45.1348175 158.94252014 45.37808228 C160.63718881 45.89033248 162.32045483 46.44015161 164 47 C163.4192434 56.54888648 161.08350186 65.58417702 158.78125 74.828125 C158.35842962 76.54807587 157.93628126 78.26819207 157.51477051 79.98846436 C156.40969887 84.49202199 155.29686823 88.99362327 154.1819458 93.49475098 C152.39582165 100.71118494 150.62150218 107.93052909 148.84739685 115.14992523 C148.22887023 117.66202247 147.60695762 120.17326223 146.98449707 122.68438721 C146.60352621 124.22870161 146.22262256 125.7730326 145.84179688 127.31738281 C145.66929916 128.00945831 145.49680145 128.70153381 145.31907654 129.4145813 C144.37435006 133.25796734 143.59759318 137.08759364 143 141 C128.231437 144.86639702 113.31651713 148.09908344 98.41365361 151.39758539 C94.70067224 152.21987721 90.98823867 153.04463513 87.27574158 153.86911011 C80.26084605 155.42660315 73.24547461 156.9819411 66.22992176 158.53647029 C58.26943469 160.30049089 50.30948459 162.06692852 42.34957898 163.83357072 C28.73657473 166.85483507 15.1231817 169.8743418 1.50932312 172.89175415 C0.3841629 173.14114746 -0.74099731 173.39054077 -1.9002533 173.64749146 C-2.95029478 173.8785471 -4.00033627 174.10960274 -5.08219719 174.34766006 C-6.92513436 174.7596898 -8.76545701 175.18376481 -10.601717 175.62459946 C-14.83574595 176.63128896 -18.6085875 177.22520064 -23 177 C-19.51457191 148.97768779 -15.93968727 120.96666092 -12.37354088 92.95453262 C-11.14488844 83.30315888 -9.91784838 73.6515829 -8.69282758 63.99974751 C-7.8247942 57.16167694 -6.95492852 50.32384093 -6.08370364 43.48617625 C-5.56550795 39.41878591 -5.04813117 35.35129532 -4.53275681 31.28354645 C-4.05054777 27.47783069 -3.56607905 23.67240948 -3.07985497 19.86720467 C-2.90204477 18.4724975 -2.72506111 17.07768468 -2.54896355 15.68276024 C-2.30866395 13.78026917 -2.0651063 11.87819045 -1.82138062 9.97613525 C-1.68608633 8.91221684 -1.55079205 7.84829842 -1.41139793 6.75214005 C-1.06608483 4.4420895 -0.62036891 2.24895566 0 0 Z " fill="#FEFEFE" transform="translate(31,12)"/>
<path d="M0 0 C4.10603425 0.45426927 6.97676876 1.94603852 10.48046875 4.0703125 C11.5485376 4.71170166 12.61660645 5.35309082 13.71704102 6.01391602 C14.2815799 6.35738068 14.84611877 6.70084534 15.42776489 7.05471802 C18.4558953 8.89644601 21.49880641 10.71354216 24.5390625 12.53515625 C25.16259109 12.90972458 25.78611969 13.28429291 26.42854309 13.67021179 C32.59867571 17.37261103 38.82351056 20.97746601 45.0625 24.5625 C46.65094727 25.47660645 46.65094727 25.47660645 48.27148438 26.40917969 C51.51360519 28.27403814 54.75673817 30.13712676 58 32 C86.25911684 48.24193748 86.25911684 48.24193748 99 56 C98.84106445 58.27441406 98.84106445 58.27441406 98 61 C95.66870117 62.85839844 95.66870117 62.85839844 92.54296875 64.609375 C91.9772113 64.93315125 91.41145386 65.25692749 90.82855225 65.59051514 C89.6010588 66.29065211 88.36925527 66.98327417 87.13375854 67.66918945 C84.47987762 69.14296204 81.84725211 70.65298385 79.21266174 72.16088867 C77.84315999 72.9441808 76.47256853 73.72557052 75.10093689 74.50512695 C68.30028824 78.37460776 61.61225453 82.41834124 54.9375 86.5 C53.78949179 87.20020272 52.64137956 87.90023491 51.49316406 88.60009766 C49.76214356 89.65538411 48.03127846 90.71092012 46.30096436 91.7673645 C42.00828488 94.38797863 37.70868289 96.99699697 33.40625 99.6015625 C32.14330169 100.36652184 30.88036215 101.13149566 29.61743164 101.89648438 C27.80956326 102.99151203 26.00154009 104.0862773 24.19284058 105.17993164 C22.53281049 106.18390569 20.87381565 107.18959086 19.21484375 108.1953125 C17.65805908 109.13745605 17.65805908 109.13745605 16.06982422 110.09863281 C12.06177824 112.58110952 8.14480862 115.19526754 4.24438477 117.84326172 C3.50373779 118.22498535 2.76309082 118.60670898 2 119 C1.01 118.67 0.02 118.34 -1 118 C-1.02332961 102.76236936 -1.04097948 87.52473954 -1.05181217 72.28709507 C-1.056975 65.21246813 -1.06401744 58.13785226 -1.07543945 51.06323242 C-1.08644681 44.24221122 -1.09227618 37.42120156 -1.09487724 30.60017204 C-1.09673205 27.99133052 -1.1003537 25.38248967 -1.10573006 22.77365303 C-1.11293643 19.13367448 -1.11399111 15.49374425 -1.11352539 11.85375977 C-1.11712067 10.76331863 -1.12071594 9.6728775 -1.12442017 8.5493927 C-1.1230455 7.56356201 -1.12167084 6.57773132 -1.12025452 5.56202698 C-1.12117631 4.70015054 -1.1220981 3.8382741 -1.12304783 2.95028019 C-1 1 -1 1 0 0 Z " fill="#020202" transform="translate(58,42)"/>
</svg>
