<?xml version="1.0" encoding="UTF-8"?>
<svg version="1.1" xmlns="http://www.w3.org/2000/svg" width="200" height="200">
<path d="M0 0 C7.26 0 14.52 0 22 0 C22 1.32 22 2.64 22 4 C23.65 4 25.3 4 27 4 C27.15855469 4.78503906 27.31710938 5.57007813 27.48046875 6.37890625 C29.40278066 15.65894634 29.40278066 15.65894634 35 23 C39.39946443 25.15173806 44.17945111 26.22249212 49 27 C49 28.65 49 30.3 49 32 C50.98 32 52.96 32 55 32 C55 38.93 55 45.86 55 53 C44.8164794 53 44.8164794 53 39.25 51.1875 C38.18265625 50.85105469 37.1153125 50.51460937 36.015625 50.16796875 C33.09610247 49.03722104 30.65639563 47.63990626 28 46 C27.9906543 47.30557861 27.98130859 48.61115723 27.97167969 49.95629883 C27.9315151 54.84514271 27.86568461 59.73337468 27.79248047 64.62182617 C27.76442343 66.7291675 27.74313374 68.83661107 27.72900391 70.9440918 C27.6153007 86.94971342 26.99089953 99.64885169 15.375 111.68359375 C7.07226285 119.39053263 -2.30182718 121.38781818 -13.328125 121.2734375 C-22.94234834 120.5574847 -29.9692205 116.34271389 -37 110 C-37.78632812 109.29488281 -38.57265625 108.58976562 -39.3828125 107.86328125 C-47.52335275 100.16603775 -51.99039213 92.71555026 -52.39404297 81.50097656 C-52.55997493 71.95149875 -51.59419264 65.06904284 -46 57 C-45.31550781 55.97519531 -45.31550781 55.97519531 -44.6171875 54.9296875 C-39.53094837 48.21585185 -31.24667426 43.3977414 -23 42 C-18.66069851 41.8570583 -14.33956253 41.88253816 -10 42 C-10 43.65 -10 45.3 -10 47 C-8.02 47 -6.04 47 -4 47 C-4 54.26 -4 61.52 -4 69 C-7.3 69 -10.6 69 -14 69 C-18.89536515 71.09801364 -21.95874943 73.01027639 -24 78 C-25.38550854 84.13582355 -25.13151194 87.5198541 -22 93 C-17.29477445 94.56840852 -13.47351184 94.54895539 -8.8125 92.8125 C-5.19238954 90.47953993 -2.92227622 87.84455245 -1 84 C-0.87756962 81.34625148 -0.81431199 78.71701637 -0.79467773 76.06201172 C-0.78477814 75.24241974 -0.77487854 74.42282776 -0.76467896 73.57839966 C-0.73302467 70.86219192 -0.70829103 68.14596668 -0.68359375 65.4296875 C-0.66302761 63.5492405 -0.64203123 61.66879817 -0.62062073 59.7883606 C-0.5653649 54.83343269 -0.51597112 49.87846283 -0.46777344 44.92346191 C-0.41758402 39.86950943 -0.36188461 34.81561806 -0.30664062 29.76171875 C-0.1990161 19.84119604 -0.0980897 9.92062157 0 0 Z " fill="#FFFFFF" transform="translate(104,41)"/>
</svg>
