<?xml version="1.0" encoding="UTF-8"?>
<svg version="1.1" xmlns="http://www.w3.org/2000/svg" width="200" height="200">
<path d="M0 0 C11.45545114 0.56648277 22.80436154 1.52592627 34.1965332 2.84179688 C35.83780619 3.02789782 37.4791244 3.21360028 39.1204834 3.39894104 C43.51885224 3.89679024 47.91655345 4.40031376 52.31412911 4.90511513 C56.93630433 5.43484096 61.55903355 5.95969119 66.1816864 6.48522949 C73.92576962 7.36637368 81.66943516 8.25111439 89.4128418 9.13818359 C98.36204499 10.16335372 107.31182762 11.18333669 116.26194698 12.20047522 C124.89760884 13.18194734 133.53291941 14.16647511 142.16805077 15.15260315 C145.83492211 15.57133843 149.50190185 15.98910545 153.16897011 16.40611267 C157.47610809 16.89608779 161.7829282 17.38876874 166.08951569 17.88355827 C167.66966196 18.0646787 169.24991315 18.24488658 170.83027458 18.42411995 C172.9849473 18.66864679 175.13921522 18.91647501 177.29341125 19.16516113 C178.49915959 19.30305305 179.70490793 19.44094498 180.9471941 19.58301544 C183.37659638 19.91484893 185.64586931 20.3331178 188 21 C187.42382755 35.01633734 185.18582027 48.8588577 183.21875 62.73046875 C182.84062808 65.41600982 182.46376444 68.10172718 182.08679199 70.78742981 C181.29989904 76.38812933 180.50930461 81.9882963 179.71630859 87.58813477 C178.80002807 94.05880817 177.88914855 100.5302242 176.98120642 107.00207251 C176.10451786 113.25059185 175.22460972 119.49865333 174.34303284 125.74648476 C173.96889722 128.39819519 173.59579079 131.05004741 173.22349548 133.70201683 C172.70454977 137.3931396 172.18191451 141.08372073 171.65820312 144.77416992 C171.50440689 145.87282883 171.35061066 146.97148773 171.19215393 148.10343933 C171.04918381 149.10544373 170.90621368 150.10744812 170.75891113 151.13981628 C170.6357679 152.01116305 170.51262466 152.88250982 170.38574982 153.78026104 C170 156 170 156 169 159 C152.55499064 162.27257477 136.03672086 165.01077665 119.47953963 167.64608669 C116.59856051 168.10492333 113.71786677 168.56553933 110.83715421 169.02604604 C104.04483329 170.11172168 97.25195716 171.19387205 90.45874023 172.27392578 C83.47805786 173.38386923 76.49852789 174.50086371 69.51948279 175.62105155 C63.48402148 176.5894778 57.44780532 177.55309634 51.410981 178.51298928 C47.82346375 179.08350446 44.23627147 179.65589292 40.64983177 180.23314667 C36.66502167 180.87431586 32.67868721 181.50547219 28.69213867 182.13574219 C26.93332367 182.42086418 26.93332367 182.42086418 25.13897705 182.71174622 C19.34701756 183.61885362 13.86273085 184.2130208 8 184 C7.02096386 175.69743314 6.66110347 167.39538402 6.3515625 159.04541016 C6.29419107 157.55915312 6.23654579 156.07290663 6.1786499 154.58666992 C6.05519564 151.40245653 5.93366135 148.21817791 5.81365967 145.03383255 C5.62313422 139.97827695 5.42828413 134.9228934 5.23291016 129.86752319 C4.92366185 121.85234691 4.61733058 113.83706219 4.31222725 105.82172716 C3.76762124 91.51639409 3.21842329 77.21123716 2.66761589 62.90614164 C2.47504426 57.9017413 2.28387084 52.89729008 2.09381676 47.89279354 C1.48673536 31.92352618 0.85276175 15.95842265 0 0 Z " fill="#FEFEFE" transform="translate(6,8)"/>
<path d="M0 0 C6.6 0 13.2 0 20 0 C20 1.65 20 3.3 20 5 C21.98 5 23.96 5 26 5 C26.08636719 5.6290625 26.17273438 6.258125 26.26171875 6.90625 C27.28237694 13.12383749 28.8146369 18.1769777 33 23 C37.4849898 26.08965964 41.69683503 26.54283061 47 27 C47 28.65 47 30.3 47 32 C48.98 32.33 50.96 32.66 53 33 C53 39.27 53 45.54 53 52 C42.43685343 52.69494385 35.29033433 49.65319844 26 45 C26.0314209 46.85177856 26.0314209 46.85177856 26.06347656 48.7409668 C26.13660757 53.37968054 26.18206215 58.01834478 26.21972656 62.6574707 C26.23967719 64.65430305 26.26684772 66.65107824 26.30175781 68.64770508 C26.79672576 97.71251398 26.79672576 97.71251398 16 109 C7.298848 117.60090832 -0.81851472 120.38417184 -12.93774414 120.45092773 C-25.13729033 120.18861126 -34.48570068 113.34897312 -43 105 C-45.31082122 102.14212723 -47.21608965 99.20860326 -49 96 C-49.598125 94.96875 -50.19625 93.9375 -50.8125 92.875 C-52.22399346 89.45770005 -52.70176245 86.69814567 -53 83 C-53.07605469 82.11183594 -53.15210938 81.22367187 -53.23046875 80.30859375 C-53.72350963 70.0879895 -50.77073362 61.90524775 -44.1875 54.0625 C-37.63288501 47.27466837 -29.57103956 42.39153863 -19.984375 41.8203125 C-17.3151023 41.81346821 -14.6655634 41.86547624 -12 42 C-12 43.98 -12 45.96 -12 48 C-10.02 48 -8.04 48 -6 48 C-6 54.6 -6 61.2 -6 68 C-8.97 68 -11.94 68 -15 68 C-19.04330747 69.47086262 -22.07057963 72.01249085 -25 75.125 C-26.89580867 80.57544992 -27.05323031 86.45026063 -24.83984375 91.80859375 C-23.16668966 94.24682115 -23.16668966 94.24682115 -20.29296875 94.62890625 C-11.90434962 94.48168137 -11.90434962 94.48168137 -5 90 C-1.17730559 85.27338882 -0.41511938 81.52758218 -0.45410156 75.60791016 C-0.44376389 74.78773407 -0.43342621 73.96755798 -0.42277527 73.12252808 C-0.39341938 70.42783743 -0.39184965 67.73390026 -0.390625 65.0390625 C-0.37563846 63.16432265 -0.35891031 61.28959598 -0.34051514 59.41488647 C-0.29688263 54.49285261 -0.27685159 49.57099685 -0.26177979 44.64880371 C-0.24219395 39.62123095 -0.20022557 34.5938501 -0.16015625 29.56640625 C-0.08489828 19.71096427 -0.03664989 9.85566126 0 0 Z " fill="#030303" transform="translate(105,41)"/>
<path d="M0 0 C1.65 0 3.3 0 5 0 C5 6.27 5 12.54 5 19 C-5.60600928 19.69776377 -12.64799419 16.67600291 -22 12 C-22 26.19 -22 40.38 -22 55 C-22.33 55 -22.66 55 -23 55 C-23.33 39.49 -23.66 23.98 -24 8 C-21.03 8.99 -18.06 9.98 -15 11 C-12.48896479 11.6047389 -9.96826478 12.17151883 -7.4375 12.6875 C-6.21933594 12.93886719 -5.00117188 13.19023438 -3.74609375 13.44921875 C-2.83988281 13.63097656 -1.93367188 13.81273438 -1 14 C-1.01160156 13.07316406 -1.02320313 12.14632812 -1.03515625 11.19140625 C-1.04417969 9.99386719 -1.05320313 8.79632813 -1.0625 7.5625 C-1.07410156 6.36753906 -1.08570313 5.17257813 -1.09765625 3.94140625 C-1 1 -1 1 0 0 Z " fill="#202020" transform="translate(153,74)"/>
<path d="M0 0 C1.794375 0.6496875 1.794375 0.6496875 3.625 1.3125 C9.95122272 3.43811083 16.46572954 4.68942797 23 6 C23 6.33 23 6.66 23 7 C17.80790596 7.21192221 13.873261 6.5912689 9 5 C8.67 5.66 8.34 6.32 8 7 C1.125 3.375 1.125 3.375 0 0 Z " fill="#131313" transform="translate(129,82)"/>
</svg>
