<?xml version="1.0" encoding="UTF-8"?>
<svg version="1.1" xmlns="http://www.w3.org/2000/svg" width="200" height="200">
<path d="M0 0 C0.99 0 1.98 0 3 0 C4.17845909 2.35691818 4.0700933 3.56428697 3.95800781 6.18202209 C3.92141052 7.0716159 3.88481323 7.9612097 3.84710693 8.87776089 C3.7995929 9.86821942 3.75207886 10.85867796 3.703125 11.87915039 C3.65544983 12.9355903 3.60777466 13.9920302 3.55865479 15.08048344 C2.85829004 29.87588228 1.87410418 44.65588855 0.9122467 59.43607974 C0.63604439 63.68774795 0.36267667 67.93959866 0.08886719 72.19142151 C-0.36983128 79.30750799 -0.83071194 86.42345048 -1.29296875 93.53930664 C-1.82586947 101.74303524 -2.35529788 109.94698245 -2.88290787 118.15105289 C-3.39407613 126.09830073 -3.90761101 134.04539394 -4.42224121 141.99241829 C-4.63987765 145.35377301 -4.85670903 148.7151782 -5.07287598 152.07662773 C-5.32705874 156.02749385 -5.58332787 159.97821941 -5.84117126 163.92884827 C-5.93500222 165.37150538 -6.02813702 166.81420798 -6.12049866 168.25695992 C-7.48047408 189.48047408 -7.48047408 189.48047408 -9 191 C-19.48544792 190.80017198 -29.98042238 189.23968037 -40.375 187.9375 C-41.90100139 187.74902259 -43.42704292 187.56086985 -44.953125 187.37304688 C-48.63588493 186.91909016 -52.31808919 186.46079924 -56 186 C-56 185.34 -56 184.68 -56 184 C-57.89250488 184.0364286 -57.89250488 184.0364286 -59.82324219 184.07359314 C-65.21968109 184.0697778 -70.47829321 183.48660894 -75.828125 182.82250977 C-76.871465 182.69731964 -77.91480499 182.57212952 -78.98976135 182.44314575 C-82.4105105 182.03123379 -85.83025382 181.61155726 -89.25 181.19140625 C-91.63366571 180.90199279 -94.01737408 180.6129304 -96.40112305 180.32420349 C-101.38095976 179.71981702 -106.36031724 179.11166118 -111.33935547 178.50073242 C-117.73575779 177.71613595 -124.13318375 176.94027643 -130.53097534 176.16709995 C-135.44507915 175.57239157 -140.35866407 174.97348564 -145.27209473 174.37324333 C-147.63237706 174.08535046 -149.99281066 173.79869497 -152.35339355 173.51327705 C-155.63847287 173.11536688 -158.92282317 172.71191412 -162.20703125 172.30688477 C-163.68122276 172.12993828 -163.68122276 172.12993828 -165.18519592 171.94941711 C-166.07387863 171.83865845 -166.96256134 171.72789978 -167.87817383 171.61378479 C-168.65461746 171.51884011 -169.4310611 171.42389544 -170.23103333 171.32607365 C-172 171 -172 171 -173 170 C-175.34723966 169.602507 -177.70328548 169.25631277 -180.0625 168.9375 C-181.35285156 168.76089844 -182.64320313 168.58429688 -183.97265625 168.40234375 C-184.97167969 168.26957031 -185.97070312 168.13679687 -187 168 C-187.44156694 159.97938697 -187.87828502 151.95851428 -188.3125 143.9375 C-188.37902771 142.70881195 -188.44555542 141.4801239 -188.51409912 140.21420288 C-189.33239872 125.04850593 -190.11501789 109.88176272 -190.83203125 94.7109375 C-190.88238872 93.64622695 -190.88238872 93.64622695 -190.9337635 92.5600071 C-191.2621799 85.60677944 -191.58697495 78.65339269 -191.90579891 71.69971848 C-191.99606561 69.7359096 -192.08728243 67.77214448 -192.17851257 65.80838013 C-192.28935555 63.4215567 -192.39864148 61.03466015 -192.50593567 58.64767456 C-192.8584278 51.08509692 -193.37977333 43.54525401 -194 36 C-190.12524528 34.67496301 -186.49096883 33.65445303 -182.4375 33.0625 C-178.31011034 32.42174411 -174.2849733 31.62365044 -170.23022461 30.62524414 C-162.65854803 28.85512935 -155.03536077 27.57952078 -147.36361885 26.33639336 C-144.81886421 25.92386027 -142.27506543 25.505817 -139.73143005 25.08644104 C-133.4259573 24.04788044 -127.11911356 23.01775926 -120.81207275 21.98876953 C-115.45173079 21.11404896 -110.09205835 20.23543015 -104.7332592 19.35130501 C-102.23567946 18.94086932 -99.73720954 18.5361986 -97.23866272 18.13169861 C-95.70406247 17.87903236 -94.16950892 17.62608224 -92.63500977 17.37280273 C-91.9476474 17.26314682 -91.26028503 17.15349091 -90.55209351 17.04051208 C-87.60932673 16.5492746 -84.84440016 15.94803009 -82.01190186 15.00198364 C-78.44606562 13.81572003 -74.87347864 13.1862573 -71.17456055 12.59545898 C-70.41451218 12.46997681 -69.65446381 12.34449463 -68.87138367 12.21520996 C-67.23158165 11.94514185 -65.59140666 11.67733055 -63.95090294 11.41155815 C-61.35760558 10.99137666 -58.76535783 10.56518763 -56.17329407 10.13746643 C-50.67892086 9.23199977 -45.18326412 8.33447922 -39.6875 7.4375 C-33.30143901 6.39439669 -26.91592802 5.34807269 -20.53144264 4.29536629 C-17.97208299 3.87485046 -15.41194338 3.45933601 -12.85173035 3.04405212 C-11.29393847 2.78797743 -9.73618195 2.5316875 -8.1784668 2.27514648 C-7.46213074 2.16032425 -6.74579468 2.04550201 -6.00775146 1.92720032 C-2.7195979 1.60406359 -2.7195979 1.60406359 0 0 Z " fill="#FEFEFE" transform="translate(195,4)"/>
<path d="M0 0 C3.08697325 0.00008157 6.17379906 -0.00692614 9.26074219 -0.02050781 C58.12175054 -0.2312725 58.12175054 -0.2312725 68.3125 8.93530273 C75.922698 18.72589304 74.44460248 35.76850781 74.33618164 47.51269531 C74.312496 50.24826495 74.31566074 52.98285867 74.32226562 55.71850586 C74.27813107 86.05125851 74.27813107 86.05125851 66.6875 94.87280273 C61.50843567 99.32920692 56.47059966 100.72914965 49.77758789 101.35620117 C48.99142373 101.4359103 48.20525957 101.51561943 47.39527225 101.59774399 C38.78593104 102.40395436 30.19869961 102.47572131 21.55859375 102.45092773 C19.85384567 102.45228147 18.14909798 102.45422782 16.4443512 102.45672607 C12.90402482 102.45964332 9.36380064 102.45549054 5.82348633 102.44604492 C1.33710066 102.43464369 -3.14904573 102.44123607 -7.63542271 102.45318985 C-11.14549999 102.46049394 -14.6555226 102.45808195 -18.16560173 102.45293427 C-19.81783007 102.45162171 -21.47006376 102.45315896 -23.12228584 102.45789337 C-31.54913479 102.47675821 -39.88551499 102.25981876 -48.26928711 101.35620117 C-48.95936387 101.28713688 -49.64944063 101.21807259 -50.36042881 101.14691544 C-56.20198607 100.43690319 -61.09124712 98.53760648 -65.25 94.31030273 C-65.72953125 93.83850586 -66.2090625 93.36670898 -66.703125 92.88061523 C-74.12854469 83.1738919 -72.31377676 66.61924785 -72.26074219 55.08422852 C-72.25004577 52.32212233 -72.2606796 49.56067021 -72.2734375 46.79858398 C-72.30196587 16.47089123 -72.30196587 16.47089123 -65.2734375 8.13842773 C-64.64695312 7.57639648 -64.02046875 7.01436523 -63.375 6.43530273 C-62.76398437 5.86295898 -62.15296875 5.29061523 -61.5234375 4.70092773 C-55.6571517 1.17752388 -48.31615644 0.84318586 -41.6015625 0.57202148 C-40.76710602 0.53469406 -39.93264954 0.49736664 -39.07290649 0.45890808 C-26.05763757 -0.04870246 -13.02318661 -0.00171525 0 0 Z " fill="#010101" transform="translate(99,48.814697265625)"/>
<path d="M0 0 C3.80540118 1.52216047 6.9335994 3.02302202 10.421875 5.08203125 C11.44796875 5.68466797 12.4740625 6.28730469 13.53125 6.90820312 C14.5934375 7.53662109 15.655625 8.16503906 16.75 8.8125 C23.78848104 12.96017633 30.83153475 17.08010114 38 21 C38 21.66 38 22.32 38 23 C36.92105469 23.59425781 35.84210938 24.18851563 34.73046875 24.80078125 C25.3986783 29.95580478 16.12754049 35.19938517 6.93237305 40.5949707 C6.16965088 41.0405835 5.40692871 41.48619629 4.62109375 41.9453125 C3.60680298 42.54110107 3.60680298 42.54110107 2.57202148 43.14892578 C1 44 1 44 0 44 C0 29.48 0 14.96 0 0 Z " fill="#F6F6F6" transform="translate(85,78)"/>
</svg>
