<?xml version="1.0" encoding="UTF-8"?>
<svg version="1.1" xmlns="http://www.w3.org/2000/svg" width="200" height="200">
<path d="M0 0 C11.35546037 12.05523664 8.63342215 36.28092898 8.3046875 51.83007812 C8.13694486 56.70467934 7.8026871 61.55806654 7.39453125 66.41796875 C7.28951294 67.75601563 7.28951294 67.75601563 7.18237305 69.12109375 C6.55145142 75.80395652 5.58848418 82.56690286 1.41015625 88.0078125 C-21.39663275 106.66376591 -85.03711208 97.91373806 -113.515625 95.26171875 C-120.99390257 94.43340378 -127.89919999 93.46613642 -133.04296875 87.41796875 C-133.5225 86.8765625 -134.00203125 86.33515625 -134.49609375 85.77734375 C-138.05768429 79.98439528 -138.35051191 73.09846337 -138.91796875 66.48046875 C-139.00143555 65.51431641 -139.08490234 64.54816406 -139.17089844 63.55273438 C-140.2585419 49.95941083 -140.10126151 36.56722179 -138.98046875 22.98046875 C-138.91053711 22.08392578 -138.84060547 21.18738281 -138.76855469 20.26367188 C-138.13854981 13.56202641 -137.18698296 6.78539161 -132.99609375 1.328125 C-113.54225659 -14.58511379 -20.7933015 -15.44774686 0 0 Z M-79.79296875 23.66796875 C-79.79296875 37.52796875 -79.79296875 51.38796875 -79.79296875 65.66796875 C-70.99073688 60.97344509 -62.34632323 56.34838113 -53.85546875 51.16796875 C-52.96923828 50.63171875 -52.08300781 50.09546875 -51.16992188 49.54296875 C-49.04212095 48.25478657 -46.91649807 46.96317563 -44.79296875 45.66796875 C-45.93294047 42.2480536 -46.2829247 42.10177013 -49.30078125 40.50390625 C-50.03369385 40.10800293 -50.76660645 39.71209961 -51.52172852 39.30419922 C-52.31248779 38.88799316 -53.10324707 38.47178711 -53.91796875 38.04296875 C-55.5559138 37.1598227 -57.1926123 36.27436122 -58.828125 35.38671875 C-59.65586426 34.938125 -60.48360352 34.48953125 -61.33642578 34.02734375 C-65.72758111 31.59741403 -70.00577442 28.98348786 -74.28369141 26.36083984 C-76.86261837 24.48578538 -76.86261837 24.48578538 -79.79296875 23.66796875 Z " fill="#FFFFFF" transform="translate(165.79296875,55.33203125)"/>
</svg>
